<svg xmlns="http://www.w3.org/2000/svg" width="32" height="32" viewBox="0 0 32 32" fill="none">
  <rect width="32" height="32" rx="8" fill="#0A0A0F"/>
  <path d="M16 6C11.03 6 7 10.03 7 15C7 19.97 11.03 24 16 24C20.97 24 25 19.97 25 15C25 10.03 20.97 6 16 6ZM16 22C12.14 22 9 18.86 9 15C9 11.14 12.14 8 16 8C19.86 8 23 11.14 23 15C23 18.86 19.86 22 16 22Z" fill="#00D4FF"/>
  <path d="M16 10C13.24 10 11 12.24 11 15C11 17.76 13.24 20 16 20C18.76 20 21 17.76 21 15C21 12.24 18.76 10 16 10Z" fill="#00D4FF" opacity="0.3"/>
  <circle cx="13" cy="14" r="1.5" fill="#00FF88"/>
  <circle cx="19" cy="14" r="1.5" fill="#00FF88"/>
  <path d="M13.5 17.5C14.5 18.5 17.5 18.5 18.5 17.5" stroke="#00FF88" stroke-width="1.2" stroke-linecap="round"/>
</svg>
